<?xml version="1.0" standalone="no"?><!DOCTYPE svg PUBLIC "-//W3C//DTD SVG 1.1//EN" "http://www.w3.org/Graphics/SVG/1.1/DTD/svg11.dtd"><svg class="icon" height="512" viewBox="0 0 1024 1024" version="1.1" xmlns="http://www.w3.org/2000/svg"><path d="M1006.497368 619.91114c-9.768911-5.90333-24.944515-4.915175-37.432133-3.450862-6.466528 0.752636-12.282819 8.586197-18.04279 13.624252-64.322238 56.299239-139.048265 83.99318-224.649117 83.204704-204.568577-1.884151-360.753396-194.06239-317.320653-394.09467 26.393468-121.532832 101.303813-203.9337 217.230274-248.549157 16.578477-6.379488 29.178734-16.773036 23.290763-33.346393-3.90654-10.987465-17.735591-21.560212-29.501292-25.932671-17.98647-6.686687-38.02605-7.854041-57.190114-11.371463h-92.15954c-44.08298 11.893701-89.891391 19.501982-131.94686 36.433738C159.397603 108.666337 48.514317 241.483593 16.913835 431.721361-30.973285 720.022 164.276939 978.217189 454.04701 1018.997785c5.678052 0.798716 11.120584 3.297264 16.675756 4.997095h102.399488c23.147404-4.828136 46.596887-8.524757 69.385893-14.663607 189.654092-51.117824 314.781146-169.547952 370.809026-358.654206 2.749426-9.277394-0.430078-26.900345-6.819805-30.765927zM425.820591 955.310423C190.00481 899.528302 42.887466 684.151459 77.580412 445.145934c33.97615-234.06475 232.912755-382.431368 426.08427-378.719386-208.09112 155.227384-189.500492 396.306498-101.733892 529.497512 90.08083 136.693077 301.643292 235.713381 506.595867 139.442503-56.616677 130.963825-258.707186 272.930475-482.706066 219.94386zM683.775141 508.377618c-22.195089 0-39.649082-0.08192-57.103074 0.02048-18.483108 0.107519-32.332638-6.08253-32.926556-26.920825-0.614397-21.93397 13.547452-30.07985 32.926556-30.294889 41.722671-0.465918 83.552862-1.648632 125.137294 0.860156 12.175299 0.737276 28.820336 10.419148 33.796951 20.669336 3.850221 7.93084-4.592617 25.395073-12.308418 34.687827-22.113169 26.654587-46.637847 51.307263-75.534983 82.472548 20.346778 0 34.314068-0.988155 48.08168 0.240638 18.749346 1.679352 37.667652 7.137244 36.438858 30.499688-1.121274 21.227414-18.600867 26.726266-37.027655 26.910585-37.467973 0.373758-74.992265 1.162234-112.398798-0.440317-11.146184-0.476158-29.839211-6.599647-31.272804-13.153215-2.815986-12.876736-0.03584-30.899046 7.741401-41.364273 17.658792-23.777161 39.787321-44.221219 59.9805-66.129589 3.850221-4.177899 7.147484-8.878036 14.469048-18.05815zM867.94062 459.538182c10.562507 2.452468 18.611107 2.129909 23.265164 5.944291 5.759971 4.720616 12.590017 13.383613 11.806661 19.409823-0.829436 6.333408-9.722831 15.97944-15.759281 16.506797-22.824846 1.97119-46.04393 2.298869-68.873896 0.399358-19.169184-1.597432-24.191879-17.356713-11.89882-32.522077 9.95835-12.287939 20.346778-24.222599 32.281438-38.379328-12.211139-1.853431-21.268374-1.464313-28.518257-4.894696-5.816291-2.749426-13.296574-10.357708-13.004735-15.406003 0.322558-5.544932 8.442838-14.894006 13.598652-15.196084 27.151224-1.576952 54.655727-2.882546 81.597032-0.06144 14.858166 1.551352 17.157034 15.011765 7.582682 27.069305-9.451473 11.898821-19.834781 23.039885-32.07664 37.130054z" /></svg>