<?xml version="1.0" encoding="UTF-8"?>
<svg width="61.2" height="61.2" version="1.1" viewBox="0 0 61.2 61.2" xml:space="preserve" xmlns="http://www.w3.org/2000/svg" xmlns:cc="http://creativecommons.org/ns#" xmlns:dc="http://purl.org/dc/elements/1.1/" xmlns:rdf="http://www.w3.org/1999/02/22-rdf-syntax-ns#">
<g transform="translate(-17.4,-15.9)">
	<path d="m65.5 36.3h-2.9v-5.8c0-8.1-6.5-14.6-14.6-14.6s-14.6 6.5-14.6 14.6v5.8h-2.9c-3.2 0-5.8 2.6-5.8 5.8v29.2c0 3.2 2.6 5.8 5.8 5.8h35c3.2 0 5.8-2.6 5.8-5.8v-29.1c0-3.2-2.6-5.9-5.8-5.9zm-17.5 26.3c-3.2 0-5.8-2.6-5.8-5.8s2.6-5.8 5.8-5.8 5.8 2.6 5.8 5.8-2.6 5.8-5.8 5.8zm9-26.3h-18v-5.8c0-5 4.1-9 9-9s9 4.1 9 9z"/>
</g>
</svg>
