<?xml version="1.0" encoding="utf-8"?>
<!-- Svg Vector Icons : http://www.onlinewebfonts.com/icon -->
<!DOCTYPE svg PUBLIC "-//W3C//DTD SVG 1.1//EN" "http://www.w3.org/Graphics/SVG/1.1/DTD/svg11.dtd">
<svg version="1.1" xmlns="http://www.w3.org/2000/svg" xmlns:xlink="http://www.w3.org/1999/xlink" x="0px" y="0px" viewBox="0 0 1000 1000" enable-background="new 0 0 1000 1000" xml:space="preserve">
<metadata> Svg Vector Icons : http://www.onlinewebfonts.com/icon </metadata>
<g><path d="M239.3,446.6h521.3v86.9H239.3V446.6L239.3,446.6z"/><path d="M500,10C229.4,10,10,229.4,10,500s219.4,490,490,490s490-219.4,490-490C990,229.4,770.6,10,500,10z M784.9,784.9c-37,37-80.1,66.1-128.1,86.4c-49.6,21-102.4,31.6-156.8,31.6c-54.4,0-107.2-10.6-156.8-31.6c-48-20.3-91.1-49.4-128.1-86.4c-37-37-66.1-80.1-86.4-128.1c-21-49.6-31.6-102.4-31.6-156.8c0-54.4,10.6-107.2,31.6-156.8c20.3-48,49.3-91.1,86.4-128.1s80.1-66.1,128.1-86.4c49.6-21,102.4-31.6,156.8-31.6s107.2,10.6,156.8,31.6c48,20.3,91.1,49.3,128.1,86.4c37,37,66.1,80.1,86.4,128.1c21,49.6,31.6,102.4,31.6,156.8c0,54.4-10.6,107.2-31.6,156.8C851,704.8,821.9,747.9,784.9,784.9z"/></g>
</svg>